<svg viewBox="0 0 24 24" fill="none" xmlns="http://www.w3.org/2000/svg">
<path d="M12.9077 3.05097V2.10448C12.9077 1.86678 12.8137 1.63873 12.6461 1.47016C12.4785 1.30158 12.251 1.20617 12.0133 1.20478L11.9518 1.2041C9.69034 1.20733 7.47811 1.86474 5.5819 3.09704C3.6857 4.32935 2.18649 6.08392 1.26509 8.14916C1.21691 8.25715 1.19048 8.37358 1.18733 8.4918C1.18418 8.61001 1.20437 8.72768 1.24673 8.83809C1.2891 8.9485 1.35281 9.04947 1.43423 9.13523C1.51565 9.22099 1.61318 9.28986 1.72124 9.33789L2.57877 9.71903C1.91785 11.6648 1.87891 13.768 2.46735 15.7368C3.0558 17.7057 4.24246 19.4426 5.86268 20.7066C7.4829 21.9705 9.45636 22.6989 11.5092 22.7905C13.5621 22.8822 15.5926 22.3326 17.3191 21.2181C19.0455 20.1036 20.3822 18.4794 21.1438 16.5708C21.9054 14.6622 22.054 12.5639 21.5691 10.567C21.0843 8.57007 19.9899 6.7736 18.4378 5.4268C16.8858 4.08 14.953 3.24966 12.9077 3.05097ZM11.1083 3.03973V4.84712C9.84591 4.98155 8.63263 5.4102 7.56595 6.09865C6.49927 6.78709 5.60894 7.71613 4.96648 8.81112L3.31282 8.07561C4.10339 6.66444 5.22692 5.4679 6.5856 4.59018C7.94428 3.71246 9.49691 3.18015 11.1083 3.03961V3.03973ZM11.9518 20.9976C10.679 20.9972 9.42427 20.6968 8.28926 20.1208C7.15426 19.5449 6.17094 18.7096 5.41904 17.6826C4.66714 16.6557 4.1678 15.466 3.96152 14.2101C3.75524 12.9541 3.84783 11.6672 4.23176 10.4538L5.01113 10.8001C5.22925 10.8947 5.47574 10.8999 5.69769 10.8147C5.91963 10.7296 6.09932 10.5608 6.19818 10.3446C6.69395 9.23219 7.50096 8.28701 8.52186 7.62301C9.54276 6.95901 10.734 6.60453 11.9518 6.60234C12.0741 6.6084 12.1964 6.58973 12.3113 6.54747C12.4262 6.50521 12.5314 6.44021 12.6207 6.35636C12.7099 6.27252 12.7813 6.17154 12.8306 6.05947C12.88 5.9474 12.9062 5.82653 12.9077 5.70409V4.86163C14.958 5.10503 16.8377 6.1225 18.1626 7.70595C19.4875 9.2894 20.1574 11.3192 20.0353 13.3802C19.9132 15.4412 19.0084 17.3777 17.5058 18.7937C16.0032 20.2096 14.0164 20.998 11.9518 20.9976Z" fill="white"/>
<path d="M11.952 7.50195C10.8843 7.50195 9.84059 7.81855 8.95285 8.41172C8.06511 9.00489 7.37321 9.84798 6.96463 10.8344C6.55605 11.8208 6.44915 12.9062 6.65744 13.9533C6.86573 15.0005 7.37986 15.9624 8.13482 16.7173C8.88978 17.4723 9.85165 17.9864 10.8988 18.1947C11.946 18.403 13.0314 18.2961 14.0178 17.8875C15.0042 17.4789 15.8473 16.787 16.4404 15.8993C17.0336 15.0116 17.3502 13.9679 17.3502 12.9002C17.3485 11.469 16.7793 10.0969 15.7673 9.08487C14.7553 8.07286 13.3831 7.50359 11.952 7.50195ZM11.952 16.499C11.2402 16.499 10.5444 16.2879 9.95255 15.8925C9.36073 15.4971 8.89946 14.935 8.62707 14.2774C8.35468 13.6198 8.28341 12.8962 8.42228 12.1981C8.56114 11.5 8.90389 10.8587 9.4072 10.3554C9.9105 9.85213 10.5518 9.50938 11.2499 9.37052C11.948 9.23165 12.6716 9.30292 13.3292 9.57531C13.9868 9.8477 14.5488 10.309 14.9443 10.9008C15.3397 11.4926 15.5508 12.1884 15.5508 12.9002C15.5497 13.8543 15.1702 14.7691 14.4955 15.4438C13.8208 16.1184 12.9061 16.4979 11.952 16.499Z" fill="white"/>
<path d="M10.1521 13.8004C10.649 13.8004 11.0519 13.3976 11.0519 12.9007C11.0519 12.4038 10.649 12.001 10.1521 12.001C9.65525 12.001 9.25244 12.4038 9.25244 12.9007C9.25244 13.3976 9.65525 13.8004 10.1521 13.8004Z" fill="white"/>
<path d="M13.7513 13.8004C14.2482 13.8004 14.651 13.3976 14.651 12.9007C14.651 12.4038 14.2482 12.001 13.7513 12.001C13.2544 12.001 12.8516 12.4038 12.8516 12.9007C12.8516 13.3976 13.2544 13.8004 13.7513 13.8004Z" fill="white"/>
<path d="M11.9524 12.0006C12.4493 12.0006 12.8522 11.5978 12.8522 11.1009C12.8522 10.604 12.4493 10.2012 11.9524 10.2012C11.4555 10.2012 11.0527 10.604 11.0527 11.1009C11.0527 11.5978 11.4555 12.0006 11.9524 12.0006Z" fill="white"/>
<path d="M11.9524 15.5992C12.4493 15.5992 12.8522 15.1964 12.8522 14.6995C12.8522 14.2026 12.4493 13.7998 11.9524 13.7998C11.4555 13.7998 11.0527 14.2026 11.0527 14.6995C11.0527 15.1964 11.4555 15.5992 11.9524 15.5992Z" fill="white"/>
</svg>
