<svg width="22" height="21" viewBox="0 0 22 21" fill="none" xmlns="http://www.w3.org/2000/svg">
<path d="M13.6 8.00039H20C20.5304 8.00039 21.0391 8.21111 21.4142 8.58618C21.7893 8.96125 22 9.46996 22 10.0004V12.1044C22.0003 12.3658 21.9493 12.6246 21.85 12.8664L18.755 20.3814C18.6795 20.5646 18.5513 20.7213 18.3866 20.8315C18.2219 20.9417 18.0282 21.0005 17.83 21.0004H1C0.734784 21.0004 0.48043 20.895 0.292893 20.7075C0.105357 20.52 0 20.2656 0 20.0004V10.0004C0 9.73518 0.105357 9.48082 0.292893 9.29329C0.48043 9.10575 0.734784 9.00039 1 9.00039H4.482C4.6421 9.00043 4.79986 8.96203 4.94203 8.88843C5.0842 8.81482 5.20662 8.70815 5.299 8.57739L10.752 0.850392C10.8209 0.752705 10.9226 0.682953 11.0385 0.653782C11.1545 0.624612 11.277 0.637955 11.384 0.691392L13.198 1.59839C13.7085 1.85355 14.1163 2.27571 14.3537 2.79471C14.5911 3.31371 14.6438 3.89831 14.503 4.45139L13.6 8.00039ZM6 10.5884V19.0004H17.16L20 12.1044V10.0004H13.6C13.2954 10.0003 12.9948 9.93073 12.7212 9.79685C12.4476 9.66297 12.2082 9.46836 12.0213 9.22788C11.8343 8.98739 11.7048 8.70739 11.6425 8.40922C11.5803 8.11105 11.5869 7.80259 11.662 7.50739L12.565 3.95939C12.5933 3.84872 12.5828 3.73171 12.5353 3.62782C12.4878 3.52393 12.4062 3.43944 12.304 3.38839L11.643 3.05839L6.933 9.73039C6.683 10.0844 6.363 10.3744 6 10.5884ZM4 11.0004H2V19.0004H4V11.0004Z" fill="white"/>
</svg>
