<svg viewBox="0 0 24 24" fill="none" xmlns="http://www.w3.org/2000/svg">
<path d="M19.2 2.1002C19.2 1.86151 19.1051 1.63259 18.9363 1.4638C18.7676 1.29502 18.5386 1.2002 18.2999 1.2002H5.69981C5.46112 1.2002 5.2322 1.29502 5.06341 1.4638C4.89463 1.63259 4.7998 1.86151 4.7998 2.1002V4.80023C4.80083 5.03873 4.89549 5.26727 5.06339 5.43665L9.35948 9.73273L10.2121 14.8483C10.2471 15.0584 10.3556 15.2493 10.5181 15.387C10.6807 15.5248 10.8868 15.6003 11.0999 15.6003H12.8999C13.1129 15.6003 13.3191 15.5248 13.4816 15.387C13.6442 15.2493 13.7526 15.0584 13.7876 14.8483L14.6403 9.73273L18.9364 5.43665C19.1042 5.26726 19.1989 5.03872 19.2 4.80023V2.1002ZM6.59982 3.00021H17.3999V3.90022H6.59982V3.00021ZM12.1375 13.8003H11.8623L11.2623 10.2003H12.7374L12.1375 13.8003ZM13.4271 8.40027H10.5727L7.87266 5.70024H16.1271L13.4271 8.40027Z" fill="white"/>
<path d="M12.6186 16.7468C12.4514 16.5883 12.2298 16.5 11.9995 16.5C11.7692 16.5 11.5476 16.5883 11.3804 16.7468C10.8926 17.2095 9.2998 18.8185 9.2998 20.1001C9.2998 20.8162 9.58427 21.5029 10.0906 22.0093C10.597 22.5156 11.2837 22.8001 11.9998 22.8001C12.7159 22.8001 13.4027 22.5156 13.909 22.0093C14.4154 21.5029 14.6999 20.8162 14.6999 20.1001C14.6999 18.8185 13.1071 17.2095 12.6186 16.7468ZM11.9998 21.0001C11.7615 20.9998 11.5329 20.9051 11.3642 20.7366C11.1955 20.5682 11.1004 20.3398 11.0998 20.1014C11.1119 19.8658 11.4985 19.2832 11.9998 18.7043C12.5016 19.2838 12.8886 19.8664 12.8998 20.1001C12.8996 20.3387 12.8047 20.5674 12.6359 20.7362C12.4672 20.9049 12.2384 20.9998 11.9998 21.0001Z" fill="white"/>
</svg>
