<svg width="242" height="316" viewBox="0 0 242 316" fill="none" xmlns="http://www.w3.org/2000/svg">
<path d="M135.891 229.206C135.891 219.01 137.551 210.088 140.871 202.441C144.446 194.539 148.66 187.912 153.512 182.559C158.62 177.206 165.259 170.833 173.431 163.441C183.647 154.52 191.18 146.873 196.032 140.5C200.884 133.873 203.31 125.971 203.31 116.794C203.31 104.304 198.458 94.3627 188.754 86.9706C179.05 79.3235 165.642 75.5 148.532 75.5C118.653 75.5 95.797 85.5686 79.9637 105.706L52 85.8235C62.7258 72.0588 76.3884 61.4804 92.9879 54.0882C109.843 46.6961 129.251 43 151.214 43C179.05 43 201.14 49.1176 217.484 61.3529C233.828 73.3333 242 89.9019 242 111.059C242 121.51 240.212 130.814 236.637 138.971C233.317 146.873 229.231 153.5 224.379 158.853C219.527 164.206 213.015 170.578 204.843 177.971C194.372 187.402 186.583 195.686 181.476 202.824C176.624 209.961 174.198 218.755 174.198 229.206H135.891ZM155.427 316C148.277 316 142.276 313.706 137.423 309.118C132.827 304.274 130.528 298.412 130.528 291.529C130.528 284.647 132.827 278.912 137.423 274.324C142.276 269.48 148.277 267.059 155.427 267.059C162.578 267.059 168.452 269.48 173.048 274.324C177.645 278.912 179.944 284.647 179.944 291.529C179.944 298.412 177.517 304.274 172.665 309.118C168.069 313.706 162.323 316 155.427 316Z" fill="#0E1B44"/>
<path d="M85.8911 188.206V189.206H86.8911H125.198H126.198V188.206C126.198 177.917 128.583 169.333 133.296 162.395C138.344 155.344 146.072 147.117 156.512 137.714L156.514 137.712C164.699 130.308 171.237 123.911 176.12 118.525C181.059 113.075 185.201 106.349 188.556 98.3648C192.194 90.0631 194 80.6212 194 70.0588C194 48.6015 185.69 31.7273 169.079 19.5492C152.509 7.14682 130.186 1 102.214 1C80.1394 1 60.5898 4.71508 43.5863 12.1724L43.5811 12.1747C26.8381 19.6308 13.0421 30.3093 2.2112 44.2089L1.56898 45.0331L2.42053 45.6385L30.3842 65.5208L31.1608 66.073L31.7498 65.3239C47.3607 45.4696 69.9026 35.5 99.5323 35.5C116.503 35.5 129.664 39.2928 139.135 46.756L139.142 46.7611L139.148 46.7661C148.597 53.9639 153.31 63.6073 153.31 75.7941C153.31 84.7806 150.939 92.4669 146.231 98.9015C141.438 105.195 133.964 112.788 123.774 121.688L123.767 121.694L123.761 121.7C115.578 129.101 108.919 135.492 103.789 140.868L103.78 140.878L103.771 140.887C98.8368 146.331 94.5697 153.051 90.9599 161.029L90.9567 161.036L90.9537 161.043C87.5685 168.84 85.8911 177.903 85.8911 188.206ZM87.6981 268.806L87.7167 268.826L87.7363 268.844C92.7881 273.621 99.0412 276 106.427 276C113.569 276 119.575 273.613 124.372 268.825C129.413 263.794 131.944 257.676 131.944 250.529C131.944 243.404 129.555 237.411 124.764 232.625C119.966 227.575 113.826 225.059 106.427 225.059C99.0247 225.059 92.7654 227.577 87.7169 232.616C82.9201 237.404 80.5282 243.399 80.5282 250.529C80.5282 257.659 82.919 263.771 87.6981 268.806Z" stroke="white" stroke-width="2"/>
</svg>
