<svg viewBox="0 0 24 24" fill="none" xmlns="http://www.w3.org/2000/svg">
<path d="M12.7963 2.40039H6.39629C5.54789 2.40134 4.73451 2.73879 4.1346 3.3387C3.53469 3.93861 3.19724 4.75199 3.19629 5.60039V18.4004C3.19724 19.2488 3.53469 20.0622 4.1346 20.6621C4.73451 21.262 5.54789 21.5994 6.39629 21.6004H12.7963C13.6447 21.5994 14.4581 21.262 15.058 20.6621C15.6579 20.0622 15.9953 19.2488 15.9963 18.4004V5.60039C15.9953 4.75199 15.6579 3.93861 15.058 3.3387C14.4581 2.73879 13.6447 2.40134 12.7963 2.40039V2.40039ZM14.3963 18.4004C14.3958 18.8246 14.2271 19.2313 13.9271 19.5312C13.6272 19.8312 13.2205 19.9999 12.7963 20.0004H6.39629C5.9721 19.9999 5.56542 19.8312 5.26547 19.5312C4.96552 19.2313 4.79679 18.8246 4.79629 18.4004V5.60039C4.79679 5.1762 4.96552 4.76952 5.26547 4.46957C5.56542 4.16963 5.9721 4.00089 6.39629 4.00039H12.7963C13.2205 4.00089 13.6272 4.16963 13.9271 4.46957C14.2271 4.76952 14.3958 5.1762 14.3963 5.60039V18.4004Z" fill="white"/>
<path d="M11.9965 13.6004V12.8004C11.9965 12.1639 11.7436 11.5534 11.2935 11.1033C10.8434 10.6532 10.233 10.4004 9.59648 10.4004C8.95996 10.4004 8.34951 10.6532 7.89943 11.1033C7.44934 11.5534 7.19648 12.1639 7.19648 12.8004V13.6004C6.98431 13.6004 6.78083 13.6847 6.6308 13.8347C6.48077 13.9847 6.39648 14.1882 6.39648 14.4004V17.6004C6.39648 17.8126 6.48077 18.016 6.6308 18.1661C6.78083 18.3161 6.98431 18.4004 7.19648 18.4004H11.9965C12.2086 18.4004 12.4121 18.3161 12.5622 18.1661C12.7122 18.016 12.7965 17.8126 12.7965 17.6004V14.4004C12.7965 14.1882 12.7122 13.9847 12.5622 13.8347C12.4121 13.6847 12.2086 13.6004 11.9965 13.6004ZM8.79648 12.8004C8.79648 12.5882 8.88077 12.3847 9.03079 12.2347C9.18082 12.0847 9.38431 12.0004 9.59648 12.0004C9.80865 12.0004 10.0121 12.0847 10.1622 12.2347C10.3122 12.3847 10.3965 12.5882 10.3965 12.8004V13.6004H8.79648V12.8004ZM11.1965 16.8004H7.99648V15.2004H11.1965V16.8004Z" fill="white"/>
<path d="M9.59629 9.60078C10.071 9.60078 10.535 9.46003 10.9297 9.19631C11.3243 8.93259 11.6319 8.55777 11.8136 8.11922C11.9952 7.68068 12.0428 7.19812 11.9502 6.73257C11.8576 6.26701 11.629 5.83937 11.2933 5.50373C10.9577 5.16808 10.5301 4.9395 10.0645 4.8469C9.59895 4.75429 9.11639 4.80182 8.67785 4.98347C8.23931 5.16512 7.86448 5.47274 7.60076 5.86741C7.33705 6.26209 7.19629 6.72611 7.19629 7.20078C7.197 7.83708 7.45009 8.44712 7.90002 8.89705C8.34995 9.34698 8.95999 9.60007 9.59629 9.60078ZM9.59629 6.40078C9.75451 6.40078 9.90919 6.4477 10.0407 6.53561C10.1723 6.62351 10.2748 6.74846 10.3354 6.89464C10.3959 7.04082 10.4118 7.20167 10.3809 7.35686C10.35 7.51204 10.2739 7.65459 10.162 7.76647C10.0501 7.87835 9.90755 7.95454 9.75236 7.98541C9.59718 8.01628 9.43632 8.00044 9.29014 7.93989C9.14396 7.87934 9.01902 7.7768 8.93111 7.64524C8.84321 7.51368 8.79629 7.35901 8.79629 7.20078C8.79653 6.98868 8.88089 6.78534 9.03087 6.63536C9.18084 6.48538 9.38419 6.40102 9.59629 6.40078Z" fill="white"/>
<path d="M17.665 5.50293L16.5337 6.63443C16.6837 6.78445 16.7679 6.9879 16.7679 7.20003C16.7679 7.41216 16.6837 7.61561 16.5337 7.76563L17.665 8.89713C17.8879 8.67427 18.0647 8.40969 18.1853 8.1185C18.3059 7.82731 18.368 7.51521 18.368 7.20003C18.368 6.88485 18.3059 6.57275 18.1853 6.28156C18.0647 5.99037 17.8879 5.72579 17.665 5.50293Z" fill="white"/>
<path d="M19.3619 3.80664L18.2305 4.93804C18.8297 5.53861 19.1662 6.35235 19.1662 7.20074C19.1662 8.04913 18.8297 8.86287 18.2305 9.46344L19.3619 10.5948C20.262 9.69467 20.7677 8.47377 20.7677 7.20074C20.7677 5.92771 20.262 4.70681 19.3619 3.80664Z" fill="white"/>
</svg>
