<svg viewBox="0 0 24 24" fill="none" xmlns="http://www.w3.org/2000/svg">
<path d="M21.907 12C21.907 11.7217 21.8948 11.4462 21.8722 11.1738L22.7999 11.0102L22.4871 9.23628L21.56 9.39941C21.4151 8.86704 21.2256 8.34783 20.9935 7.84728L21.8101 7.3758L20.9094 5.8159L20.0908 6.28873C19.7721 5.83889 19.4168 5.41618 19.0285 5.02492L19.637 4.29979L18.2572 3.14192L17.6493 3.86636C17.1968 3.55122 16.7188 3.27437 16.2203 3.03868L16.5428 2.15268L14.8501 1.53609L14.5282 2.4204C13.9947 2.27961 13.4502 2.18392 12.9007 2.13433V1.19238H11.0994V2.13433C10.5498 2.18392 10.0053 2.27961 9.47173 2.4204L9.14998 1.5362L7.45724 2.15212L7.77977 3.03868C7.28126 3.27435 6.80328 3.55121 6.35081 3.86636L5.74288 3.14192L4.36311 4.29957L4.9716 5.02469C4.58324 5.41606 4.22793 5.83888 3.9093 6.28884L3.09063 5.81601L2.18999 7.37591L3.00653 7.84739C2.77446 8.34791 2.58496 8.86708 2.44003 9.39941L1.51305 9.23628L1.2002 11.0102L2.12785 11.1738C2.10522 11.4462 2.09306 11.7217 2.09306 12C2.09306 12.2783 2.10522 12.5538 2.12785 12.8262L1.2002 12.9898L1.51305 14.7637L2.44003 14.6002C2.58495 15.1326 2.77445 15.6518 3.00653 16.1524L2.18999 16.6238L3.09063 18.1837L3.9093 17.7109C4.22795 18.1607 4.58326 18.5835 4.9716 18.9747L4.36311 19.7004L5.74299 20.8584L6.35092 20.1339C6.80337 20.449 7.28131 20.7257 7.77977 20.9613L7.45724 21.8474L9.14998 22.4633L9.47173 21.5791C10.0053 21.7201 10.5498 21.8159 11.0994 21.8656V22.8076H12.9007V21.8656C13.4502 21.8161 13.9947 21.7204 14.5282 21.5796L14.8501 22.4639L16.5428 21.8477L16.2203 20.9617C16.7188 20.7259 17.1968 20.4489 17.6493 20.1336L18.2572 20.8581L19.637 19.7004L19.0285 18.9753C19.4168 18.584 19.7721 18.1613 20.0908 17.7115L20.9094 18.1843L21.8101 16.6244L20.9935 16.1529C21.2256 15.6524 21.4151 15.1332 21.56 14.6008L22.4871 14.7643L22.7999 12.9903L21.8722 12.8268C21.8948 12.5538 21.907 12.2783 21.907 12ZM20.1057 12C20.1057 13.6031 19.6303 15.1703 18.7397 16.5033C17.849 17.8362 16.5831 18.8752 15.1019 19.4887C13.6208 20.1022 11.991 20.2627 10.4187 19.9499C8.84634 19.6372 7.40204 18.8652 6.26843 17.7316C5.13483 16.598 4.36284 15.1537 4.05008 13.5813C3.73732 12.009 3.89784 10.3792 4.51134 8.89807C5.12484 7.41694 6.16377 6.15101 7.49674 5.26034C8.82972 4.36968 10.3969 3.89428 12 3.89428C14.1491 3.8967 16.2094 4.75146 17.729 6.27105C19.2486 7.79065 20.1033 9.85096 20.1057 12Z" fill="white"/>
<path d="M12 6.5957C10.9312 6.5957 9.88646 6.91263 8.9978 7.50641C8.10915 8.10019 7.41653 8.94414 7.00753 9.93156C6.59853 10.919 6.49152 12.0055 6.70003 13.0537C6.90853 14.102 7.4232 15.0648 8.17893 15.8206C8.93467 16.5763 9.89753 17.091 10.9458 17.2995C11.994 17.508 13.0805 17.401 14.0679 16.992C15.0554 16.583 15.8993 15.8904 16.4931 15.0017C17.0869 14.113 17.4038 13.0683 17.4038 11.9995C17.4022 10.5668 16.8323 9.19331 15.8193 8.18025C14.8062 7.1672 13.4327 6.59734 12 6.5957ZM12 15.602C11.2875 15.602 10.591 15.3908 9.99854 14.9949C9.4061 14.5991 8.94436 14.0364 8.67169 13.3781C8.39902 12.7199 8.32768 11.9955 8.46668 11.2967C8.60569 10.5979 8.9488 9.95595 9.45262 9.45213C9.95644 8.94831 10.5984 8.6052 11.2972 8.46619C11.996 8.32719 12.7204 8.39853 13.3786 8.6712C14.0369 8.94386 14.5995 9.40561 14.9954 9.99805C15.3912 10.5905 15.6025 11.287 15.6025 11.9995C15.6015 12.9546 15.2216 13.8703 14.5462 14.5457C13.8708 15.2211 12.9551 15.601 12 15.602Z" fill="white"/>
</svg>
