<svg width="24" height="24" viewBox="0 0 24 24" fill="none" xmlns="http://www.w3.org/2000/svg">
<path d="M12.0002 1.2002C9.86416 1.2002 7.77609 1.8336 6.00004 3.02032C4.22399 4.20704 2.83973 5.89377 2.0223 7.86721C1.20487 9.84065 0.990999 12.0122 1.40772 14.1072C1.82444 16.2022 2.85304 18.1265 4.36345 19.6369C5.87385 21.1473 7.79823 22.1759 9.89322 22.5927C11.9882 23.0094 14.1597 22.7955 16.1332 21.9781C18.1066 21.1607 19.7933 19.7764 20.9801 18.0003C22.1668 16.2243 22.8002 14.1362 22.8002 12.0002C22.797 9.13684 21.6581 6.39169 19.6334 4.36699C17.6087 2.3423 14.8635 1.20341 12.0002 1.2002V1.2002ZM12.0002 21.0002C10.2202 21.0002 8.48011 20.4723 7.00007 19.4834C5.52002 18.4945 4.36647 17.0889 3.68528 15.4443C3.00409 13.7998 2.82587 11.9902 3.17313 10.2444C3.5204 8.49855 4.37756 6.8949 5.63624 5.63623C6.89491 4.37756 8.49856 3.52039 10.2444 3.17313C11.9902 2.82586 13.7998 3.00409 15.4443 3.68528C17.0889 4.36647 18.4945 5.52002 19.4834 7.00006C20.4723 8.4801 21.0002 10.2202 21.0002 12.0002C20.9975 14.3863 20.0484 16.6739 18.3612 18.3612C16.6739 20.0484 14.3863 20.9975 12.0002 21.0002Z" fill="white"/>
<path d="M12.0003 4.7998C10.5763 4.7998 9.18422 5.22208 8.00019 6.01322C6.81616 6.80437 5.89331 7.92885 5.34836 9.24448C4.80341 10.5601 4.66083 12.0078 4.93864 13.4045C5.21646 14.8011 5.90219 16.084 6.90913 17.091C7.91606 18.0979 9.19898 18.7836 10.5956 19.0615C11.9923 19.3393 13.44 19.1967 14.7556 18.6517C16.0712 18.1068 17.1957 17.1839 17.9869 15.9999C18.778 14.8159 19.2003 13.4238 19.2003 11.9998C19.1981 10.0909 18.4389 8.2608 17.0891 6.911C15.7393 5.56121 13.9092 4.80195 12.0003 4.7998ZM17.4003 11.9998C17.4008 12.6426 17.2859 13.2803 17.0611 13.8825L14.6544 12.4929C14.7156 12.167 14.7156 11.8326 14.6544 11.5067L17.0611 10.1171C17.2859 10.7193 17.4008 11.357 17.4003 11.9998ZM16.1592 8.55944L13.753 9.94859C13.5015 9.73303 13.2124 9.56558 12.9003 9.4546V6.67585C14.1773 6.89268 15.3339 7.56116 16.1592 8.55944ZM12.0003 12.8998C11.8223 12.8998 11.6483 12.847 11.5003 12.7481C11.3523 12.6492 11.2369 12.5087 11.1688 12.3442C11.1007 12.1798 11.0829 11.9988 11.1176 11.8242C11.1523 11.6496 11.238 11.4893 11.3639 11.3634C11.4898 11.2375 11.6501 11.1518 11.8247 11.1171C11.9993 11.0824 12.1803 11.1002 12.3447 11.1683C12.5092 11.2364 12.6497 11.3518 12.7486 11.4998C12.8475 11.6478 12.9003 11.8218 12.9003 11.9998C12.9 12.2384 12.8051 12.4672 12.6364 12.6359C12.4677 12.8046 12.2389 12.8995 12.0003 12.8998ZM11.1003 6.67619V9.45494C10.7882 9.56592 10.4991 9.73337 10.2475 9.94893L7.84139 8.55944C8.66678 7.56128 9.82334 6.89293 11.1003 6.67619ZM6.6003 11.9998C6.59983 11.357 6.71471 10.7193 6.93948 10.1171L9.34619 11.5067C9.285 11.8326 9.285 12.167 9.34619 12.4929L6.93948 13.8825C6.71471 13.2803 6.59983 12.6426 6.6003 11.9998ZM7.84139 15.4402L10.2475 14.051C10.4991 14.2666 10.7882 14.434 11.1003 14.545V17.3237C9.8233 17.1069 8.66673 16.4384 7.84139 15.4402ZM12.9003 17.3234V14.5447C13.2124 14.4337 13.5015 14.2662 13.753 14.0507L16.1592 15.4398C15.3339 16.4381 14.1773 17.1066 12.9003 17.3234Z" fill="white"/>
</svg>
