<svg viewBox="0 0 24 24" fill="none" xmlns="http://www.w3.org/2000/svg">
<path d="M21.9002 5.90019H20.1002V4.1002C20.1002 3.8615 20.0054 3.63258 19.8366 3.4638C19.6678 3.29502 19.4389 3.2002 19.2002 3.2002H15.6002C15.3615 3.2002 15.1326 3.29502 14.9638 3.4638C14.795 3.63258 14.7002 3.8615 14.7002 4.1002V5.90019H9.30019V4.1002C9.30019 3.8615 9.20537 3.63258 9.03659 3.4638C8.86781 3.29502 8.63889 3.2002 8.40019 3.2002H4.80019C4.5615 3.2002 4.33258 3.29502 4.1638 3.4638C3.99502 3.63258 3.9002 3.8615 3.9002 4.1002V5.90019H2.1002C1.8615 5.90019 1.63258 5.99502 1.4638 6.1638C1.29502 6.33258 1.2002 6.5615 1.2002 6.80019L1.2002 20.3002C1.2002 20.5389 1.29502 20.7678 1.4638 20.9366C1.63258 21.1054 1.8615 21.2002 2.1002 21.2002H21.9002C22.1389 21.2002 22.3678 21.1054 22.5366 20.9366C22.7054 20.7678 22.8002 20.5389 22.8002 20.3002V6.80019C22.8002 6.5615 22.7054 6.33258 22.5366 6.1638C22.3678 5.99502 22.1389 5.90019 21.9002 5.90019ZM16.5002 5.00019H18.3002V5.90019H16.5002V5.00019ZM5.70019 5.00019H7.50019V5.90019H5.70019V5.00019ZM21.0002 19.4002H3.0002V7.70019H21.0002V19.4002Z" fill="white"/>
<path d="M4.80029 9.5H8.40029V11.3H4.80029V9.5Z" fill="white"/>
<path d="M18.3006 8.60059H16.5006V9.50058H15.6006V11.3006H16.5006V12.2006H18.3006V11.3006H19.2006V9.50058H18.3006V8.60059Z" fill="white"/>
</svg>
