<svg viewBox="0 0 24 24" fill="none" xmlns="http://www.w3.org/2000/svg">
<path d="M19.65 3.4998H15.4C15.3995 3.0491 15.2202 2.61701 14.9015 2.29831C14.5828 1.97962 14.1507 1.80034 13.7 1.7998H10.3C9.8493 1.80034 9.41721 1.97962 9.09851 2.29831C8.77981 2.61701 8.60053 3.0491 8.6 3.4998H4.35C4.12457 3.4998 3.90837 3.58936 3.74896 3.74876C3.58955 3.90817 3.5 4.12437 3.5 4.3498V21.3498C3.5 21.5752 3.58955 21.7914 3.74896 21.9508C3.90837 22.1103 4.12457 22.1998 4.35 22.1998H19.65C19.8754 22.1998 20.0916 22.1103 20.251 21.9508C20.4104 21.7914 20.5 21.5752 20.5 21.3498V4.3498C20.5 4.12437 20.4104 3.90817 20.251 3.74876C20.0916 3.58936 19.8754 3.4998 19.65 3.4998ZM10.3 3.4998H13.7V5.19981H10.3V3.4998ZM18.8 20.4998H5.2V5.19981H8.6V6.04981C8.6 6.27524 8.68955 6.49144 8.84896 6.65085C9.00837 6.81025 9.22457 6.89981 9.45 6.89981H14.55C14.7754 6.89981 14.9916 6.81025 15.151 6.65085C15.3104 6.49144 15.4 6.27524 15.4 6.04981V5.19981H18.8V20.4998Z" fill="white"/>
<path d="M8.30868 9.204L7.27986 8.68953L6.51953 10.21L8.21953 11.06C8.40514 11.1509 8.61736 11.1718 8.81715 11.1188C9.01694 11.0658 9.19085 10.9424 9.30689 10.7713L11.0069 8.22129L9.59249 7.27832L8.30868 9.204Z" fill="white"/>
<path d="M12 8.59961H17.1V10.2996H12V8.59961Z" fill="white"/>
<path d="M8.30868 13.454L7.27986 12.9395L6.51953 14.46L8.21953 15.31C8.40514 15.4009 8.61736 15.4218 8.81715 15.3688C9.01694 15.3157 9.19085 15.1923 9.30689 15.0213L11.0069 12.4713L9.59249 11.5283L8.30868 13.454Z" fill="white"/>
<path d="M12 12.8496H17.1V14.5496H12V12.8496Z" fill="white"/>
<path d="M8.30868 17.704L7.27986 17.1895L6.51953 18.71L8.21953 19.56C8.40514 19.6509 8.61736 19.6718 8.81715 19.6188C9.01694 19.5657 9.19085 19.4423 9.30689 19.2713L11.0069 16.7213L9.59249 15.7783L8.30868 17.704Z" fill="white"/>
<path d="M12 17.0996H17.1V18.7996H12V17.0996Z" fill="white"/>
</svg>
