<svg save-fill="" viewBox="0 0 190 190" fill="none" xmlns="http://www.w3.org/2000/svg">
<path d="M89.8039 21C92.1133 17 97.8867 17 100.196 21L161.684 127.5C163.993 131.5 161.107 136.5 156.488 136.5H33.5122C28.8934 136.5 26.0066 131.5 28.316 127.5L89.8039 21Z" fill="white" stroke="#F45151" stroke-width="12"/>
<path fill-rule="evenodd" clip-rule="evenodd" d="M101 56H89L92 100H95H98L101 56ZM95 118C98.3135 118 101 115.313 101 112C101 108.687 98.3135 106 95 106C91.6865 106 89 108.687 89 112C89 115.313 91.6865 118 95 118Z" fill="black"/>
</svg>
