<svg viewBox="0 0 24 24" fill="none" xmlns="http://www.w3.org/2000/svg">
<path d="M20.7999 2.40039H3.1999C2.98773 2.40039 2.78425 2.48468 2.63422 2.63471C2.48419 2.78473 2.3999 2.98822 2.3999 3.20039V20.8004C2.3999 21.0126 2.48419 21.216 2.63422 21.3661C2.78425 21.5161 2.98773 21.6004 3.1999 21.6004H20.7999C21.0121 21.6004 21.2156 21.5161 21.3656 21.3661C21.5156 21.216 21.5999 21.0126 21.5999 20.8004V3.20039C21.5999 2.98822 21.5156 2.78473 21.3656 2.63471C21.2156 2.48468 21.0121 2.40039 20.7999 2.40039V2.40039ZM19.9999 20.0004H3.9999V4.00039H19.9999V20.0004Z" fill="white"/>
<path d="M11.9998 19.2008C13.4238 19.2008 14.8159 18.7785 15.9999 17.9874C17.1839 17.1962 18.1068 16.0717 18.6517 14.7561C19.1967 13.4405 19.3393 11.9928 19.0615 10.5961C18.7836 9.19947 18.0979 7.91655 17.091 6.90962C16.084 5.90268 14.8011 5.21694 13.4045 4.93913C12.0078 4.66132 10.5601 4.8039 9.24448 5.34885C7.92886 5.8938 6.80437 6.81665 6.01322 8.00068C5.22208 9.18471 4.7998 10.5768 4.7998 12.0008C4.80195 13.9097 5.56121 15.7398 6.911 17.0896C8.2608 18.4394 10.0909 19.1986 11.9998 19.2008ZM11.9998 6.40078C13.1074 6.40078 14.1901 6.72922 15.111 7.34455C16.0319 7.95989 16.7497 8.83449 17.1735 9.85776C17.5974 10.881 17.7083 12.007 17.4922 13.0933C17.2761 14.1796 16.7428 15.1774 15.9596 15.9606C15.1764 16.7438 14.1786 17.2771 13.0923 17.4932C12.006 17.7093 10.88 17.5984 9.85678 17.1745C8.83351 16.7507 7.95891 16.0329 7.34358 15.112C6.72824 14.1911 6.3998 13.1084 6.3998 12.0008C6.40147 10.5161 6.99201 9.09267 8.04185 8.04283C9.09169 6.99299 10.5151 6.40245 11.9998 6.40078Z" fill="white"/>
<path d="M9.75043 16.1866C10.1506 16.1852 10.5432 16.078 10.8885 15.8758C11.4766 15.5241 11.9479 15.0067 12.2434 14.3885C12.3865 14.3738 12.5279 14.3462 12.666 14.306C12.9286 14.976 13.4091 15.7507 14.5011 15.7507C14.5936 15.7505 14.6861 15.7453 14.778 15.735C15.8613 15.6161 16.7523 14.7591 16.9954 13.6023C17.2208 12.5295 16.8054 11.5423 15.9113 11.0263C15.3133 10.6886 14.6275 10.5382 13.943 10.5948C13.8591 10.4792 13.7651 10.3712 13.662 10.2722C14.1476 9.66431 14.613 8.77461 13.8448 7.72771C13.2002 6.84891 12.0125 6.50551 10.889 6.87351C9.84703 7.21461 9.19973 8.06811 9.19973 9.10081C9.20665 9.78714 9.41912 10.4556 9.80973 11.02C9.75098 11.1506 9.70412 11.2863 9.66973 11.4253C8.90063 11.3091 7.89823 11.3518 7.37623 12.5398C6.93763 13.5373 7.23433 14.7375 8.11433 15.5263C8.55883 15.9419 9.14201 16.1772 9.75043 16.1866ZM11.9997 11.2008C12.158 11.2008 12.3126 11.2477 12.4442 11.3356C12.5757 11.4235 12.6783 11.5485 12.7388 11.6947C12.7994 11.8408 12.8152 12.0017 12.7844 12.1569C12.7535 12.3121 12.6773 12.4546 12.5654 12.5665C12.4535 12.6784 12.311 12.7546 12.1558 12.7854C12.0006 12.8163 11.8398 12.8005 11.6936 12.7399C11.5474 12.6794 11.4225 12.5768 11.3346 12.4453C11.2466 12.3137 11.1997 12.159 11.1997 12.0008C11.2 11.7887 11.2843 11.5854 11.4343 11.4354C11.5843 11.2854 11.7876 11.2011 11.9997 11.2008ZM15.4297 13.2734C15.3463 13.6704 15.0357 14.0971 14.6035 14.1446C14.3567 14.1719 14.2899 14.1791 14.016 13.3122L14.0134 13.3042C14.2294 12.9722 14.3592 12.5916 14.3911 12.1968C14.6441 12.2143 14.89 12.2877 15.1111 12.4117C15.4986 12.6356 15.477 13.0476 15.4297 13.2734ZM11.3868 8.39401C11.7725 8.26771 12.2976 8.32341 12.5547 8.67401C12.7017 8.87401 12.7412 8.92811 12.1282 9.59811L12.123 9.60381C12.0822 9.60181 12.0411 9.60081 11.9997 9.60081C11.6449 9.60048 11.2944 9.67932 10.9738 9.83161C10.8626 9.60382 10.8032 9.35427 10.7997 9.10081C10.7997 8.65311 11.1676 8.46581 11.3868 8.39401ZM8.84113 13.184C8.94113 12.9565 8.96763 12.8952 9.85513 13.091L9.86353 13.0929C10.0445 13.4453 10.3094 13.7477 10.6348 13.9736C10.4932 14.184 10.3067 14.3604 10.0888 14.4902C9.70063 14.7142 9.35433 14.4892 9.18243 14.3352C8.88043 14.0641 8.66603 13.5818 8.84113 13.1837V13.184Z" fill="white"/>
</svg>
