<svg save-fill="" viewBox="0 0 86 36" fill="none" xmlns="http://www.w3.org/2000/svg">
<path d="M29.5062 11.5893H22.0619L19.9259 15.0153H16.9863L26.6088 0.211483H29.337L33.0168 15.0153H30.2886L29.5062 11.5893ZM28.9986 9.43217L27.4971 2.91847L23.4154 9.43217H28.9986Z" fill="white"/>
<path d="M41.3783 15.2268C39.5737 15.2268 38.1567 14.7757 37.1275 13.8733C36.1124 12.971 35.6048 11.7303 35.6048 10.1512C35.6048 9.68595 35.6612 9.15724 35.774 8.56509L37.4447 0.211483H40.194L38.5233 8.52279C38.4246 9.08675 38.3752 9.52381 38.3752 9.83399C38.3752 10.8209 38.6572 11.5682 39.2212 12.0757C39.7851 12.5692 40.5958 12.8159 41.6532 12.8159C42.8376 12.8159 43.7822 12.4705 44.4871 11.7796C45.2062 11.0888 45.7208 9.99613 46.031 8.50164L47.6805 0.211483H50.3875L48.6956 8.69198C48.2586 10.8632 47.4267 12.4987 46.2001 13.5984C44.9735 14.684 43.3663 15.2268 41.3783 15.2268Z" fill="white"/>
<path d="M56.5283 2.5378H51.6219L52.0872 0.211483H64.6493L64.1629 2.5378H59.2564L56.7821 15.0153H54.0328L56.5283 2.5378Z" fill="white"/>
<path d="M70.9472 15.2268C69.4809 15.2268 68.212 14.966 67.1405 14.4443C66.0831 13.9086 65.2724 13.1684 64.7084 12.2238C64.1445 11.265 63.8625 10.1583 63.8625 8.90346C63.8625 7.23979 64.2361 5.73121 64.9834 4.37771C65.7447 3.02422 66.8162 1.95975 68.1979 1.18431C69.5796 0.394769 71.1587 0 72.9351 0C74.4014 0 75.6633 0.267879 76.7207 0.803637C77.7922 1.3253 78.6099 2.06549 79.1739 3.02422C79.7379 3.96884 80.0198 5.06856 80.0198 6.32336C80.0198 7.98703 79.6392 9.49561 78.8778 10.8491C78.1306 12.2026 77.0661 13.2741 75.6844 14.0637C74.3027 14.8391 72.7236 15.2268 70.9472 15.2268ZM71.1798 12.8159C72.3782 12.8159 73.4356 12.5339 74.3521 11.97C75.2826 11.3919 75.9946 10.6235 76.4881 9.6648C76.9956 8.69198 77.2494 7.63456 77.2494 6.49255C77.2494 5.25184 76.8476 4.26492 76.0439 3.53178C75.2544 2.78453 74.1335 2.41091 72.6814 2.41091C71.4829 2.41091 70.4185 2.69994 69.4879 3.278C68.5715 3.84195 67.8666 4.61034 67.3731 5.58317C66.8796 6.54189 66.6329 7.59226 66.6329 8.73427C66.6329 9.97498 67.0277 10.969 67.8172 11.7162C68.6068 12.4493 69.7276 12.8159 71.1798 12.8159Z" fill="white"/>
<path d="M8.22673 15.0138L10.3627 11.5878L17.6378 0.209961H14.9096L5.28711 15.0138H8.22673Z" fill="#3787FF"/>
<path d="M2.93962 15.0128L5.07561 11.5868L12.3506 0.208984H9.6225L0 15.0128H2.93962Z" fill="#37CFFF"/>
<path d="M47.4765 20.982C49.2671 20.982 50.6487 21.3768 51.6216 22.1663C52.6085 22.9417 53.102 24.0344 53.102 25.4443C53.102 26.6991 52.8129 27.7847 52.2349 28.7011C51.6709 29.6035 50.8532 30.3014 49.7817 30.7948C48.7242 31.2742 47.4765 31.5139 46.0384 31.5139H42.422L41.555 35.7858H38.8057L41.7664 20.982H47.4765ZM46.1441 29.1876C47.4835 29.1876 48.5128 28.8915 49.2318 28.2993C49.9649 27.6931 50.3315 26.826 50.3315 25.6981C50.3315 24.9085 50.0566 24.3164 49.5067 23.9216C48.971 23.5127 48.1955 23.3083 47.1804 23.3083H44.0505L42.8873 29.1876H46.1441Z" fill="url(#paint0_linear)"/>
<path d="M68.2827 25.4443C68.2827 26.8683 67.902 28.0737 67.1407 29.0607C66.3793 30.0335 65.3149 30.7102 63.9473 31.0909L66.5908 35.7858H63.6723L61.2403 31.4504H61.2191H57.5605L56.7145 35.7858H53.9441L56.9049 20.982H62.6572C64.4478 20.982 65.8295 21.3768 66.8023 22.1663C67.7892 22.9417 68.2827 24.0344 68.2827 25.4443ZM61.3037 29.1876C62.6431 29.1876 63.6794 28.8915 64.4125 28.2993C65.1457 27.6931 65.5122 26.826 65.5122 25.6981C65.5122 24.9085 65.2373 24.3164 64.6875 23.9216C64.1517 23.5127 63.3763 23.3083 62.3611 23.3083H59.21L58.0257 29.1876H61.3037Z" fill="url(#paint1_linear)"/>
<path d="M76.8149 35.9973C75.3486 35.9973 74.0797 35.7365 73.0082 35.2148C71.9508 34.6791 71.1401 33.9389 70.5761 32.9943C70.0122 32.0355 69.7302 30.9288 69.7302 29.674C69.7302 28.0103 70.1038 26.5017 70.851 25.1482C71.6124 23.7947 72.6839 22.7303 74.0656 21.9548C75.4473 21.1653 77.0264 20.7705 78.8028 20.7705C80.2691 20.7705 81.531 21.0384 82.5884 21.5741C83.6599 22.0958 84.4776 22.836 85.0416 23.7947C85.6055 24.7394 85.8875 25.8391 85.8875 27.0939C85.8875 28.7575 85.5069 30.2661 84.7455 31.6196C83.9983 32.9731 82.9338 34.0446 81.5521 34.8342C80.1704 35.6096 78.5913 35.9973 76.8149 35.9973ZM77.0475 33.5864C78.2459 33.5864 79.3033 33.3044 80.2198 32.7405C81.1503 32.1624 81.8623 31.394 82.3557 30.4353C82.8633 29.4625 83.1171 28.4051 83.1171 27.2631C83.1171 26.0223 82.7153 25.0354 81.9116 24.3023C81.1221 23.555 80.0012 23.1814 78.549 23.1814C77.3506 23.1814 76.2862 23.4704 75.3556 24.0485C74.4392 24.6125 73.7343 25.3808 73.2408 26.3537C72.7473 27.3124 72.5006 28.3628 72.5006 29.5048C72.5006 30.7455 72.8954 31.7395 73.6849 32.4867C74.4745 33.2198 75.5953 33.5864 77.0475 33.5864Z" fill="url(#paint2_linear)"/>
<defs>
<linearGradient id="paint0_linear" x1="62.1435" y1="14.6375" x2="62.1435" y2="42.8353" gradientUnits="userSpaceOnUse">
<stop stop-color="#37CFFF"/>
<stop offset="1" stop-color="#3787FF"/>
</linearGradient>
<linearGradient id="paint1_linear" x1="62.1435" y1="14.6375" x2="62.1435" y2="42.8353" gradientUnits="userSpaceOnUse">
<stop stop-color="#37CFFF"/>
<stop offset="1" stop-color="#3787FF"/>
</linearGradient>
<linearGradient id="paint2_linear" x1="62.1435" y1="14.6375" x2="62.1435" y2="42.8353" gradientUnits="userSpaceOnUse">
<stop stop-color="#37CFFF"/>
<stop offset="1" stop-color="#3787FF"/>
</linearGradient>
</defs>
</svg>
