<svg viewBox="0 0 24 24" fill="none" xmlns="http://www.w3.org/2000/svg">
<path d="M13.1339 14.3854C12.6572 14.5662 12.2448 14.8842 11.9489 15.2994C11.653 15.7146 11.4868 16.2081 11.4714 16.7177C11.456 17.2273 11.5921 17.7301 11.8624 18.1623C12.1327 18.5946 12.5251 18.937 12.99 19.1463C13.4549 19.3555 13.9715 19.4222 14.4743 19.3379C14.9771 19.2535 15.4436 19.022 15.8148 18.6726C16.1861 18.3231 16.4453 17.8714 16.5598 17.3746C16.6744 16.8778 16.639 16.3582 16.4582 15.8815C16.2151 15.2428 15.7286 14.7266 15.1054 14.4461C14.4822 14.1656 13.7732 14.1438 13.1339 14.3854ZM14.353 17.5987C14.1942 17.659 14.021 17.6708 13.8554 17.6326C13.6898 17.5945 13.5392 17.508 13.4227 17.3843C13.3062 17.2606 13.2291 17.1051 13.201 16.9375C13.1728 16.7699 13.1951 16.5977 13.2648 16.4427C13.3345 16.2878 13.4487 16.1569 13.5927 16.0668C13.7368 15.9767 13.9044 15.9314 14.0742 15.9365C14.2441 15.9416 14.4086 15.997 14.547 16.0956C14.6854 16.1942 14.7915 16.3316 14.8517 16.4905C14.9323 16.7036 14.925 16.94 14.8315 17.1477C14.738 17.3555 14.5659 17.5177 14.353 17.5987Z" fill="white"/>
<path d="M19.1737 15.7712L18.8694 14.9668C18.5219 14.0419 17.9148 13.2369 17.121 12.6484C16.3272 12.06 15.3805 11.7131 14.3944 11.6494L13.4576 9.17978C13.7756 9.30051 14.066 9.48116 14.4195 9.3816C14.5991 9.3297 14.7571 9.22115 14.8699 9.07213C14.9828 8.92311 15.0445 8.74161 15.0458 8.55468V3.39917H15.905V1.68066H3.87549V3.39917H4.73474V8.55468C4.73729 8.69991 4.77622 8.84219 4.84796 8.9685C4.91971 9.09481 5.02198 9.20112 5.14541 9.27769C5.26885 9.35427 5.40952 9.39867 5.55455 9.40684C5.69958 9.41501 5.84435 9.38669 5.97561 9.32446C5.98828 9.31833 7.02583 8.81739 8.6525 8.62707L10.3771 13.1732C9.68106 13.8747 9.20234 14.7623 8.99848 15.7293C8.79461 16.6963 8.87426 17.7016 9.22787 18.6245L9.53291 19.4277C9.93705 20.493 10.7478 21.3542 11.7868 21.8217C12.8258 22.2892 14.008 22.3249 15.0734 21.9209L16.6806 21.3118C17.7451 20.9065 18.6053 20.0956 19.0727 19.057C19.5401 18.0183 19.5764 16.8366 19.1737 15.7712ZM6.45324 3.39917H13.3273V7.32412C11.0821 6.67352 8.6984 6.67352 6.45324 7.32412V3.39917ZM16.0709 19.7044L14.4639 20.3135C13.8246 20.5551 13.1156 20.5332 12.4923 20.2527C11.8691 19.9722 11.3825 19.4561 11.1393 18.8174L10.8344 18.0144C10.5724 17.3306 10.5366 16.5809 10.7322 15.8753C10.9277 15.1697 11.3444 14.5454 11.921 14.0941C12.0647 13.9809 12.1686 13.8249 12.2175 13.6486C12.2665 13.4723 12.2578 13.285 12.1929 13.114L10.4692 8.57079C10.8082 8.58937 11.1278 8.62288 11.4251 8.66616L12.9968 12.8098C13.0615 12.9809 13.1792 13.1269 13.3327 13.2264C13.4863 13.3259 13.6676 13.3737 13.8502 13.3628C14.5808 13.3187 15.3064 13.5098 15.9205 13.9081C16.5346 14.3064 17.005 14.8909 17.2627 15.5759L17.567 16.3801C17.8086 17.0194 17.7868 17.7284 17.5063 18.3516C17.2259 18.9748 16.7097 19.4613 16.0709 19.7044Z" fill="white"/>
<path d="M9.89002 5.97729C10.3646 5.97729 10.7493 5.59259 10.7493 5.11804C10.7493 4.64349 10.3646 4.25879 9.89002 4.25879C9.41546 4.25879 9.03076 4.64349 9.03076 5.11804C9.03076 5.59259 9.41546 5.97729 9.89002 5.97729Z" fill="white"/>
</svg>
