<svg viewBox="0 0 24 24" fill="none" xmlns="http://www.w3.org/2000/svg">
<path d="M11.9999 3.8252C10.1633 3.82546 8.36084 4.32152 6.78274 5.26104C5.20464 6.20055 3.90944 7.54866 3.03384 9.16309C2.15823 10.7775 1.73469 12.5984 1.80792 14.4335C1.88115 16.2687 2.44843 18.05 3.4499 19.5895C3.52711 19.7079 3.63265 19.8053 3.75695 19.8726C3.88125 19.94 4.0204 19.9753 4.16178 19.9753H19.8379C19.9793 19.9753 20.1184 19.94 20.2427 19.8726C20.367 19.8053 20.4726 19.7079 20.5498 19.5895C21.5512 18.05 22.1185 16.2687 22.1918 14.4335C22.265 12.5984 21.8415 10.7776 20.9659 9.16313C20.0903 7.54871 18.7951 6.2006 17.217 5.26108C15.6389 4.32156 13.8365 3.82548 11.9999 3.8252V3.8252ZM19.3631 18.2753H4.63672C4.03387 17.2329 3.66074 16.0736 3.54234 14.8753H5.19985V13.1753H3.54234C3.63383 12.2621 3.87382 11.3699 4.25284 10.5341L5.68573 11.3613L6.53574 9.88914L5.10507 9.06336C5.64181 8.31979 6.29442 7.66718 7.03799 7.13044L7.86409 8.56121L9.33629 7.71121L8.50871 6.27831C9.34455 5.89926 10.2367 5.65923 11.1499 5.56771V7.22522H12.8499V5.56771C13.7631 5.6592 14.6552 5.89919 15.4911 6.27821L14.6638 7.7111L16.136 8.56111L16.9618 7.13044C17.7054 7.66718 18.358 8.31979 18.8947 9.06336L17.4639 9.88945L18.3139 11.3617L19.7468 10.5344C20.1259 11.3701 20.3659 12.2622 20.4574 13.1753H18.7999V14.8753H20.4574C20.339 16.0736 19.9659 17.2329 19.3631 18.2753Z" fill="white"/>
<path d="M13.8212 10.1875L12.5084 12.3763C11.9179 12.2555 11.3038 12.3474 10.7746 12.6358C10.2454 12.9241 9.83517 13.3903 9.61648 13.9519C9.39779 14.5135 9.38472 15.1343 9.57957 15.7046C9.77443 16.2749 10.1647 16.7579 10.6813 17.0683C11.1979 17.3786 11.8076 17.4963 12.4026 17.4005C12.9976 17.3048 13.5396 17.0017 13.9327 16.5449C14.3258 16.0881 14.5447 15.507 14.5508 14.9044C14.5568 14.3017 14.3496 13.7164 13.9657 13.2518L15.279 11.0622L13.8212 10.1875ZM12.0001 15.7249C11.832 15.7249 11.6676 15.675 11.5278 15.5816C11.3881 15.4882 11.2791 15.3555 11.2148 15.2001C11.1504 15.0448 11.1336 14.8739 11.1664 14.709C11.1992 14.5441 11.2802 14.3927 11.399 14.2738C11.5179 14.1549 11.6694 14.074 11.8342 14.0412C11.9991 14.0084 12.17 14.0252 12.3254 14.0896C12.4807 14.1539 12.6134 14.2628 12.7068 14.4026C12.8002 14.5424 12.8501 14.7067 12.8501 14.8749C12.8498 15.1002 12.7602 15.3163 12.6008 15.4756C12.4415 15.635 12.2254 15.7246 12.0001 15.7249Z" fill="white"/>
</svg>
