<svg viewBox="0 0 24 24" fill="none" xmlns="http://www.w3.org/2000/svg">
<path d="M10.1807 13.6683C10.1289 13.4643 10.0072 13.2849 9.83693 13.1612C9.66661 13.0375 9.45836 12.9774 9.24833 12.9912C7.8365 13.0817 6.43176 13.2608 5.0424 13.5275C4.91541 13.5524 4.79527 13.6043 4.69018 13.6799C4.58509 13.7554 4.49753 13.8527 4.43346 13.9651C4.3694 14.0776 4.33033 14.2025 4.31893 14.3314C4.30753 14.4603 4.32406 14.5902 4.3674 14.7121C4.79996 15.9262 5.51552 17.0197 6.45484 17.9021C7.39416 18.7846 8.53019 19.4306 9.76886 19.7865C9.9085 19.8244 10.0552 19.8284 10.1967 19.7982C10.3381 19.768 10.4704 19.7044 10.5823 19.6128C10.6943 19.5212 10.7828 19.4041 10.8404 19.2714C10.898 19.1387 10.9231 18.9941 10.9136 18.8497C10.6492 15.5451 10.2002 13.7435 10.1807 13.6683ZM6.51401 15.0979C7.18519 14.9945 7.87875 14.9109 8.58998 14.8477C8.69831 15.4231 8.84693 16.3264 8.9799 17.5288C7.94768 16.9638 7.09367 16.1219 6.51401 15.0979Z" fill="white"/>
<path d="M12.0002 1.2002C9.86416 1.2002 7.77609 1.8336 6.00004 3.02032C4.22399 4.20704 2.83973 5.89377 2.0223 7.86721C1.20487 9.84065 0.990999 12.0122 1.40772 14.1072C1.82444 16.2022 2.85304 18.1265 4.36345 19.6369C5.87385 21.1473 7.79823 22.1759 9.89322 22.5927C11.9882 23.0094 14.1597 22.7955 16.1332 21.9781C18.1066 21.1607 19.7933 19.7764 20.9801 18.0003C22.1668 16.2243 22.8002 14.1362 22.8002 12.0002C22.797 9.13684 21.6581 6.39169 19.6334 4.36699C17.6087 2.3423 14.8635 1.20341 12.0002 1.2002V1.2002ZM12.0002 21.0002C10.2202 21.0002 8.48011 20.4723 7.00007 19.4834C5.52002 18.4945 4.36647 17.0889 3.68528 15.4443C3.00409 13.7998 2.82587 11.9902 3.17313 10.2444C3.5204 8.49855 4.37756 6.8949 5.63624 5.63623C6.89491 4.37756 8.49856 3.52039 10.2444 3.17313C11.9902 2.82586 13.7998 3.00409 15.4443 3.68528C17.0889 4.36647 18.4945 5.52002 19.4834 7.00006C20.4723 8.4801 21.0002 10.2202 21.0002 12.0002C20.9975 14.3863 20.0484 16.6739 18.3612 18.3612C16.6739 20.0484 14.3863 20.9975 12.0002 21.0002Z" fill="white"/>
<path d="M20.0701 11.3257C19.9021 9.30587 18.9828 7.42241 17.4938 6.04731C16.0048 4.67222 14.0542 3.90547 12.0274 3.89849C10.0006 3.8915 8.04479 4.6448 6.54632 6.00961C5.04785 7.37441 4.11563 9.2515 3.93376 11.2702C3.9205 11.4183 3.94417 11.5674 4.00265 11.7042C4.06112 11.841 4.15258 11.9611 4.26884 12.0539C4.3851 12.1466 4.52254 12.2091 4.66887 12.2358C4.8152 12.2625 4.96585 12.2524 5.10736 12.2066C7.33281 11.4792 9.6587 11.1059 12 11.1002C14.3424 11.107 16.668 11.4963 18.885 12.2526C19.0263 12.3003 19.1773 12.3121 19.3243 12.287C19.4713 12.2619 19.6098 12.2006 19.7273 12.1087C19.8448 12.0168 19.9375 11.8971 19.9973 11.7604C20.0571 11.6238 20.0819 11.4744 20.0696 11.3257H20.0701ZM12 9.30018C9.97456 9.30296 7.95766 9.56285 5.99768 10.0736C6.40037 8.79945 7.20022 7.68757 8.28024 6.90065C9.36025 6.11373 10.6637 5.69306 12 5.70019C13.3378 5.70724 14.6391 6.13717 15.7178 6.92848C16.7965 7.7198 17.5974 8.83196 18.0058 10.1059C16.048 9.57428 14.0287 9.30336 12 9.30018Z" fill="white"/>
<path d="M18.9579 13.5272C17.5685 13.2608 16.1637 13.0817 14.7519 12.9912C14.5419 12.9775 14.3338 13.0376 14.1635 13.1613C13.9932 13.2849 13.8715 13.4642 13.8195 13.6681C13.8005 13.7431 13.3507 15.5443 13.0869 18.8497C13.0774 18.9941 13.1025 19.1387 13.1601 19.2714C13.2177 19.4041 13.3062 19.5211 13.4181 19.6128C13.5301 19.7044 13.6623 19.768 13.8038 19.7982C13.9453 19.8285 14.092 19.8245 14.2316 19.7866C15.4704 19.4307 16.6066 18.7847 17.5459 17.9021C18.4853 17.0196 19.2009 15.9259 19.6334 14.7118C19.6768 14.5898 19.6933 14.46 19.6819 14.3311C19.6705 14.2021 19.6314 14.0772 19.5674 13.9648C19.5033 13.8523 19.4157 13.755 19.3107 13.6795C19.2056 13.604 19.0854 13.552 18.9584 13.5271L18.9579 13.5272ZM15.0204 17.529C15.1533 16.3262 15.3022 15.4227 15.4105 14.8477C16.122 14.9109 16.8156 14.9939 17.4867 15.0976C16.9069 16.1219 16.0526 16.964 15.02 17.529H15.0204Z" fill="white"/>
<path d="M12.0001 13.8C12.4972 13.8 12.9001 13.3971 12.9001 12.9C12.9001 12.4029 12.4972 12 12.0001 12C11.503 12 11.1001 12.4029 11.1001 12.9C11.1001 13.3971 11.503 13.8 12.0001 13.8Z" fill="white"/>
</svg>
