<svg viewBox="0 0 24 24" fill="none" xmlns="http://www.w3.org/2000/svg">
<path d="M11.9999 1.7998C6.05787 1.7998 2.6499 4.89795 2.6499 10.2998C2.6499 16.0467 6.4069 22.1998 11.9999 22.1998C17.5929 22.1998 21.3499 16.0467 21.3499 10.2998C21.3499 4.89795 17.9419 1.7998 11.9999 1.7998ZM17.4896 17.2744C16.0359 19.3543 14.0864 20.4998 11.9999 20.4998C9.91336 20.4998 7.96389 19.3543 6.51018 17.2744C5.1574 15.3388 4.3499 12.7314 4.3499 10.2998C4.3499 4.67918 8.51001 3.4998 11.9999 3.4998C15.4898 3.4998 19.6499 4.67918 19.6499 10.2998C19.6499 12.7314 18.8424 15.3388 17.4896 17.2744Z" fill="white"/>
<path d="M15.3999 11.1496H12.8499V8.59961H11.1499V11.1496H8.5999V8.59961H6.8999V11.9996C6.8999 12.225 6.98946 12.4412 7.14886 12.6006C7.30827 12.76 7.52447 12.8496 7.7499 12.8496H11.1499V15.3996H12.8499V12.8496H15.3999V15.3996H17.0999V8.59961H15.3999V11.1496Z" fill="white"/>
<path d="M11.9999 17.95C12.4694 17.95 12.8499 17.5695 12.8499 17.1C12.8499 16.6306 12.4694 16.25 11.9999 16.25C11.5305 16.25 11.1499 16.6306 11.1499 17.1C11.1499 17.5695 11.5305 17.95 11.9999 17.95Z" fill="white"/>
<path d="M16.2499 17.95C16.7194 17.95 17.0999 17.5695 17.0999 17.1C17.0999 16.6306 16.7194 16.25 16.2499 16.25C15.7805 16.25 15.3999 16.6306 15.3999 17.1C15.3999 17.5695 15.7805 17.95 16.2499 17.95Z" fill="white"/>
<path d="M16.2499 7.7498C16.7194 7.7498 17.0999 7.36924 17.0999 6.8998C17.0999 6.43036 16.7194 6.0498 16.2499 6.0498C15.7805 6.0498 15.3999 6.43036 15.3999 6.8998C15.3999 7.36924 15.7805 7.7498 16.2499 7.7498Z" fill="white"/>
<path d="M11.9999 7.7498C12.4694 7.7498 12.8499 7.36924 12.8499 6.8998C12.8499 6.43036 12.4694 6.0498 11.9999 6.0498C11.5305 6.0498 11.1499 6.43036 11.1499 6.8998C11.1499 7.36924 11.5305 7.7498 11.9999 7.7498Z" fill="white"/>
<path d="M7.7499 7.7498C8.21934 7.7498 8.5999 7.36924 8.5999 6.8998C8.5999 6.43036 8.21934 6.0498 7.7499 6.0498C7.28046 6.0498 6.8999 6.43036 6.8999 6.8998C6.8999 7.36924 7.28046 7.7498 7.7499 7.7498Z" fill="white"/>
</svg>
